<svg xmlns="http://www.w3.org/2000/svg" width="1200" height="630" viewBox="0 0 1200 630">
  <defs>
    <linearGradient id="bg" x1="0" y1="0" x2="1" y2="1">
      <stop offset="0" stop-color="#0d2835"/>
      <stop offset="1" stop-color="#10202a"/>
    </linearGradient>
    <radialGradient id="glow" cx="0" cy="0" r="1" gradientTransform="translate(936 92) rotate(130) scale(560 420)">
      <stop stop-color="#176b62" stop-opacity=".72"/>
      <stop offset="1" stop-color="#176b62" stop-opacity="0"/>
    </radialGradient>
  </defs>
  <rect width="1200" height="630" rx="28" fill="url(#bg)"/>
  <rect width="1200" height="630" rx="28" fill="url(#glow)"/>
  <g fill="none" stroke="#cce36d" opacity=".16">
    <circle cx="980" cy="315" r="230"/>
    <circle cx="980" cy="315" r="155"/>
    <circle cx="980" cy="315" r="82"/>
    <path d="M720 315h520M980 55v520"/>
  </g>
  <g transform="translate(82 78)">
    <circle cx="30" cy="30" r="29" fill="none" stroke="#dfe9e6" stroke-width="2"/>
    <circle cx="30" cy="30" r="18" fill="none" stroke="#dfe9e6" opacity=".7"/>
    <circle cx="30" cy="30" r="6" fill="#e05b36"/>
    <circle cx="47" cy="18" r="4" fill="#72c7bb"/>
    <text x="78" y="25" fill="#ffffff" font-family="Noto Sans CJK SC, Microsoft YaHei, sans-serif" font-size="28" font-weight="700" letter-spacing="4">智域前沿</text>
    <text x="79" y="51" fill="#8fa9b2" font-family="Arial, sans-serif" font-size="13" font-weight="700" letter-spacing="5">FRONTIER PULSE</text>
  </g>
  <text x="82" y="255" fill="#ffffff" font-family="Noto Sans CJK SC, Microsoft YaHei, sans-serif" font-size="72" font-weight="800">全球科技与安全</text>
  <text x="82" y="342" fill="#ffffff" font-family="Noto Sans CJK SC, Microsoft YaHei, sans-serif" font-size="72" font-weight="800">态势日报</text>
  <text x="86" y="410" fill="#b4c4ca" font-family="Noto Sans CJK SC, Microsoft YaHei, sans-serif" font-size="25">每日十条重点 · 中文摘要 · 关键事实 · 多源解释</text>
  <g transform="translate(84 503)" font-family="Noto Sans CJK SC, Microsoft YaHei, sans-serif" font-size="18" font-weight="700">
    <rect width="98" height="40" rx="20" fill="#cce36d"/><text x="49" y="27" text-anchor="middle" fill="#10202a">AI</text>
    <rect x="112" width="128" height="40" rx="20" fill="#153f4d"/><text x="176" y="27" text-anchor="middle" fill="#dbe6e8">航空航天</text>
    <rect x="254" width="128" height="40" rx="20" fill="#153f4d"/><text x="318" y="27" text-anchor="middle" fill="#dbe6e8">军事动态</text>
    <rect x="396" width="128" height="40" rx="20" fill="#153f4d"/><text x="460" y="27" text-anchor="middle" fill="#dbe6e8">前沿技术</text>
  </g>
  <circle cx="980" cy="315" r="12" fill="#e05b36"/>
  <circle cx="1090" cy="220" r="7" fill="#cce36d"/>
  <circle cx="865" cy="410" r="8" fill="#72c7bb"/>
</svg>
